<svg fill="none" viewBox="0 0 110 48" xmlns="http://www.w3.org/2000/svg">
  <path fill="#312e81" fill-rule="evenodd" clip-rule="evenodd"
    d="M43.6 33.612v-15.6a2.01 2.01 0 014.02 0v15.6a2.01 2.01 0 01-4.02 0zm19.2.452c-1.24 1.056-2.852 1.72-4.916 1.72-4.256 0-7.404-2.992-7.404-7.328v-.052c0-4.048 2.88-7.38 7.008-7.38 4.732 0 6.824 3.888 6.824 6.824 0 1.164-.82 1.932-1.88 1.932h-7.96c.4 1.824 1.668 2.776 3.464 2.776a4.63 4.63 0 002.856-.952c.292-.212.56-.32.98-.32.9 0 1.56.692 1.56 1.588 0 .532-.24.928-.528 1.192zm-8.38-6.8h6.056c-.24-1.796-1.296-3.012-2.988-3.012-1.668 0-2.752 1.188-3.068 3.016zm20.552 6.748c-.448 1.028-1.192 1.744-2.276 1.744h-.208c-1.088 0-1.828-.688-2.28-1.744L65.88 23.988a2.672 2.672 0 01-.212-.98c0-.952.872-1.88 1.956-1.88s1.664.612 1.96 1.432l3.04 8.224 3.092-8.28c.264-.684.82-1.372 1.88-1.372a1.903 1.903 0 011.928 1.904c0 .344-.132.764-.212.952l-4.336 10.024zm18.12.052c-1.24 1.056-2.856 1.72-4.92 1.72-4.256 0-7.404-2.992-7.404-7.328v-.052c0-4.048 2.88-7.38 7.008-7.38 4.732 0 6.824 3.888 6.824 6.824 0 1.164-.82 1.932-1.88 1.932h-7.96c.4 1.824 1.668 2.776 3.464 2.776a4.63 4.63 0 002.856-.952c.292-.212.56-.32.98-.32.9 0 1.56.692 1.56 1.588 0 .532-.24.928-.528 1.192zm-8.384-6.8h6.056c-.24-1.796-1.296-3.012-2.988-3.012-1.668 0-2.752 1.188-3.068 3.016zm12.908 6.348v-15.6a2.01 2.01 0 014.02 0v15.6a2.01 2.01 0 01-4.02 0zM12.2 16h16a2 2 0 010 4h-16a2 2 0 010-4zm5.8 8h16a2 2 0 010 4H18a2 2 0 010-4zM8 32h16a2 2 0 010 4H8a2 2 0 110-4z" />
</svg>